<?xml version="1.0" standalone="no"?>
<!DOCTYPE svg PUBLIC "-//W3C//DTD SVG 20010904//EN"
 "http://www.w3.org/TR/2001/REC-SVG-20010904/DTD/svg10.dtd">
<svg version="1.0" xmlns="http://www.w3.org/2000/svg"
 width="475.000000pt" height="152.000000pt" viewBox="0 0 475.000000 152.000000"
 preserveAspectRatio="xMidYMid meet">

<g transform="translate(0.000000,152.000000) scale(0.100000,-0.100000)"
fill="#000000" stroke="none">
<path d="M585 1000 c-37 -121 -71 -220 -75 -220 -4 0 -17 23 -30 50 -24 51
-24 51 -64 45 -23 -3 -90 -10 -151 -16 -125 -11 -146 -22 -126 -65 12 -27 12
-27 89 -20 42 4 100 9 128 13 l52 6 63 -118 62 -118 39 119 c21 65 43 136 49
158 6 21 14 35 18 30 5 -5 30 -134 56 -286 27 -153 50 -277 51 -275 1 1 30 83
64 182 34 99 65 183 69 188 4 4 45 10 92 13 46 3 94 7 105 10 25 4 36 33 22
58 -10 18 -93 21 -219 10 l-66 -7 -17 -53 c-9 -30 -21 -54 -27 -54 -5 0 -9 3
-9 8 1 21 -94 548 -99 554 -4 5 -38 -91 -76 -212z"/>
<path d="M1350 760 l0 -250 25 0 25 0 2 183 3 182 89 -182 c74 -151 93 -183
111 -183 17 0 36 32 110 183 l90 182 3 -182 2 -183 25 0 25 0 0 251 0 250 -26
-3 c-22 -3 -36 -26 -120 -203 -53 -110 -100 -204 -105 -209 -5 -6 -49 75 -111
202 -89 186 -104 212 -125 212 l-23 0 0 -250z"/>
<path d="M1960 760 l0 -250 145 0 145 0 0 25 0 25 -120 0 -120 0 0 90 0 90 90
0 c83 0 90 1 90 20 0 19 -7 20 -90 20 l-90 0 0 90 0 90 115 0 115 0 0 25 0 25
-140 0 -140 0 0 -250z"/>
<path d="M2330 761 l0 -251 93 0 c107 0 166 16 219 60 104 86 110 267 12 364
-53 52 -97 67 -215 73 l-109 6 0 -252z m212 189 c85 -24 132 -91 132 -190 0
-135 -70 -200 -216 -200 l-78 0 0 200 0 200 63 0 c34 0 79 -5 99 -10z"/>
<path d="M2810 760 l0 -250 25 0 25 0 0 250 0 250 -25 0 -25 0 0 -250z"/>
<path d="M2950 760 l0 -250 30 0 30 0 0 115 0 115 95 0 c88 0 95 1 95 20 0 19
-7 20 -95 20 l-95 0 0 90 0 90 115 0 115 0 0 25 0 25 -145 0 -145 0 0 -250z"/>
<path d="M3401 868 c-35 -79 -86 -191 -112 -250 l-48 -108 28 0 c24 0 31 7 54
60 l26 60 136 0 136 0 26 -60 c23 -53 30 -60 54 -60 l28 0 -50 113 c-28 61
-78 174 -112 250 -81 183 -82 183 -166 -5z m148 -56 c28 -64 51 -123 51 -130
0 -9 -30 -12 -115 -12 -76 0 -115 4 -115 11 0 24 103 249 115 249 6 0 35 -53
64 -118z"/>
<path d="M3874 1000 c-36 -14 -74 -68 -74 -106 0 -71 47 -116 160 -153 124
-40 133 -172 13 -188 -59 -8 -92 3 -129 44 -21 23 -38 33 -48 30 -22 -9 -20
-21 11 -58 31 -36 94 -68 137 -69 133 -1 215 125 137 212 -16 18 -70 52 -122
78 -99 48 -119 70 -106 121 7 29 54 59 92 59 34 0 80 -24 99 -52 12 -17 20
-19 37 -12 l21 10 -27 32 c-15 18 -40 39 -56 47 -30 16 -111 19 -145 5z"/>
<path d="M4150 985 c0 -24 2 -25 70 -25 l70 0 0 -225 0 -225 30 0 30 0 0 225
0 225 70 0 c68 0 70 1 70 25 l0 25 -170 0 -170 0 0 -25z"/>
</g>
</svg>
